<?xml version="1.0" standalone="no"?>
<!DOCTYPE svg PUBLIC "-//W3C//DTD SVG 20010904//EN"
 "http://www.w3.org/TR/2001/REC-SVG-20010904/DTD/svg10.dtd">
<svg version="1.0" xmlns="http://www.w3.org/2000/svg"
 width="1766.000000pt" height="1740.000000pt" viewBox="0 0 1766.000000 1740.000000"
 preserveAspectRatio="xMidYMid meet">

<g transform="translate(0.000000,1740.000000) scale(0.100000,-0.100000)"
fill="#000000" stroke="none">
<path d="M8820 13001 c0 -2058 1 -2229 16 -2235 9 -4 18 -5 20 -3 3 2 6 2455
4 3880 0 580 0 587 -20 587 -20 0 -20 -7 -20 -2229z"/>
<path d="M7110 15010 c-12 -7 22 -117 199 -657 118 -356 267 -810 332 -1008
65 -198 255 -776 423 -1285 535 -1626 487 -1473 467 -1490 -9 -8 -39 -42 -66
-75 -26 -33 -50 -59 -52 -58 -6 3 -147 174 -609 738 -225 275 -576 703 -779
950 -203 248 -482 588 -620 756 -626 766 -868 1060 -877 1065 -6 4 -16 0 -24
-8 -12 -12 31 -68 302 -398 174 -212 350 -427 392 -479 43 -52 111 -135 153
-185 41 -50 167 -203 280 -341 113 -137 351 -428 529 -646 179 -217 467 -568
640 -780 173 -211 355 -433 405 -494 129 -157 171 -208 178 -221 4 -6 -5 -39
-18 -73 -87 -213 -106 -556 -45 -799 48 -189 167 -355 302 -421 162 -80 381
-39 513 96 67 69 144 212 169 316 l6 27 -63 0 -64 0 -26 -67 c-49 -123 -140
-216 -240 -245 -60 -17 -163 -14 -224 6 -146 49 -245 237 -260 499 l-6 107
451 0 452 0 0 93 c0 183 -30 346 -86 464 -19 39 -34 74 -34 77 0 4 352 428
782 944 2561 3068 2391 2863 2374 2880 -14 14 -18 14 -30 2 -7 -8 -204 -244
-437 -525 -544 -654 -2630 -3155 -2683 -3217 l-40 -47 -55 51 c-136 124 -320
156 -480 83 -30 -14 -55 -24 -56 -23 -3 7 -151 454 -505 1533 -727 2212 -822
2501 -882 2683 -33 100 -63 182 -66 182 -4 0 -14 -4 -22 -10z m1855 -4515
c130 -63 208 -216 230 -452 l7 -73 -387 0 -388 0 7 78 c13 143 50 251 118 341
27 36 43 49 48 41 4 -7 16 -9 27 -6 15 5 19 13 16 30 -4 18 1 28 19 37 86 47
213 49 303 4z"/>
<path d="M10506 14876 c-20 -55 -241 -711 -491 -1456 -251 -745 -560 -1663
-687 -2039 -226 -672 -239 -716 -202 -716 4 0 180 511 390 1135 211 624 536
1590 724 2145 187 556 340 1013 340 1016 0 4 -9 9 -19 12 -16 4 -24 -10 -55
-97z"/>
<path d="M4161 12961 c-9 -16 32 -46 362 -262 205 -133 462 -302 572 -375 110
-72 497 -326 859 -563 590 -386 664 -431 699 -431 22 0 38 2 36 4 -4 4 -1123
738 -1519 996 -124 81 -398 260 -608 398 -211 139 -385 252 -387 252 -3 0 -9
-8 -14 -19z"/>
<path d="M13264 12739 c-71 -45 -356 -224 -634 -398 -1623 -1018 -1886 -1184
-1898 -1196 -8 -7 -12 -22 -10 -33 3 -19 109 45 823 493 451 282 852 534 890
558 74 48 857 539 937 589 41 26 46 32 38 49 -6 10 -12 19 -13 19 -2 0 -61
-37 -133 -81z"/>
<path d="M3603 11435 c-3 -9 -3 -18 -1 -21 3 -2 243 -76 534 -164 291 -87 574
-172 629 -189 55 -17 103 -31 108 -31 4 0 7 11 7 25 0 14 -3 25 -6 25 -9 0
-268 77 -774 230 -256 77 -471 140 -478 140 -7 0 -15 -7 -19 -15z"/>
<path d="M13580 11400 c-80 -26 -284 -92 -455 -147 -734 -238 -1870 -606
-1872 -607 -1 -1 0 -11 3 -23 6 -24 -40 -36 489 135 171 55 695 225 1165 377
470 152 856 278 858 279 8 9 -12 36 -27 35 -9 0 -81 -22 -161 -49z"/>
<path d="M4960 10186 l0 -1066 363 0 c399 0 429 3 538 62 189 100 324 350 385
713 24 141 25 492 1 630 -65 375 -233 622 -477 701 -48 15 -105 18 -432 22
l-378 3 0 -1065z m725 869 c93 -24 145 -54 211 -120 94 -93 151 -223 190 -430
26 -140 27 -499 1 -630 -72 -359 -212 -542 -442 -575 -38 -5 -175 -10 -302
-10 l-233 0 0 890 0 890 258 0 c200 0 271 -3 317 -15z"/>
<path d="M5190 10958 c0 -23 18 -30 373 -136 205 -62 376 -112 380 -112 13 0
-16 50 -32 54 -9 3 -167 51 -351 106 -184 55 -343 103 -352 106 -14 4 -18 0
-18 -18z"/>
<path d="M5635 9840 c-110 -4 -255 -8 -322 -9 l-123 -1 0 -26 0 -27 103 6 c56
4 235 10 397 13 293 7 309 9 310 42 0 13 -19 13 -365 2z"/>
<path d="M6640 11135 l0 -115 65 0 65 0 0 115 0 115 -65 0 -65 0 0 -115z"/>
<path d="M6850 11202 c0 -25 42 -55 486 -345 267 -175 487 -317 489 -315 2 2
5 12 7 22 3 20 -18 34 -784 536 -190 124 -198 128 -198 102z"/>
<path d="M10510 10875 l0 -225 -85 0 -85 0 0 -70 0 -70 85 0 85 0 0 -583 c0
-613 3 -665 45 -747 37 -73 102 -98 220 -85 l65 7 0 73 0 73 -60 4 c-73 5
-112 37 -129 103 -7 29 -11 230 -11 599 l0 556 100 0 100 0 0 70 0 70 -100 0
-100 0 0 225 0 225 -65 0 -65 0 0 -225z"/>
<path d="M10345 10907 c-44 -28 -114 -73 -155 -100 l-75 -48 48 5 c37 3 71 19
157 72 97 61 110 72 110 96 0 16 -1 28 -2 27 -2 0 -39 -24 -83 -52z"/>
<path d="M10139 10681 c-53 -11 -104 -46 -154 -107 -68 -84 -99 -148 -141
-293 l-39 -134 -3 252 -2 251 -60 0 -60 0 0 -765 0 -765 64 0 65 0 4 498 c3
415 6 506 19 549 59 194 164 296 320 311 l58 5 0 97 c0 80 -3 99 -16 104 -9 3
-16 5 -17 5 -1 -1 -18 -4 -38 -8z"/>
<path d="M7042 10633 c3 -10 101 -354 218 -765 l213 -748 83 0 c70 0 83 3 88
18 33 108 436 1503 436 1507 0 3 -33 5 -72 3 l-73 -3 -185 -702 c-102 -387
-187 -703 -190 -703 -5 0 -25 77 -251 968 l-112 442 -80 0 c-71 0 -79 -2 -75
-17z"/>
<path d="M9908 10632 c-16 -9 -28 -25 -28 -35 0 -23 13 -15 40 23 25 35 24 35
-12 12z"/>
<path d="M11020 10638 c0 -6 100 -371 222 -811 l221 -800 -53 -160 c-44 -134
-59 -167 -91 -201 l-38 -41 -80 0 -81 0 0 -82 0 -83 74 0 c199 0 236 56 406
610 103 338 440 1537 440 1569 0 8 -21 11 -71 9 l-72 -3 -181 -707 c-99 -389
-183 -704 -187 -700 -3 4 -77 288 -164 632 -87 344 -167 660 -178 703 l-19 77
-74 0 c-50 0 -74 -4 -74 -12z"/>
<path d="M6312 10618 c3 -19 19 -27 108 -55 125 -38 140 -39 140 -14 0 16 -17
25 -87 46 -49 14 -101 30 -117 35 -42 14 -48 13 -44 -12z"/>
<path d="M6640 9880 l0 -760 65 0 65 0 0 760 0 760 -65 0 -65 0 0 -760z"/>
<path d="M10933 10543 c-7 -2 -13 -15 -13 -28 0 -18 4 -22 20 -18 25 7 32 17
24 37 -6 17 -11 18 -31 9z"/>
<path d="M6850 10457 c0 -21 10 -26 88 -49 48 -14 88 -21 90 -17 8 20 -20 43
-72 59 -105 33 -106 33 -106 7z"/>
<path d="M9490 10369 c-52 -33 -96 -63 -98 -68 -1 -4 4 -13 12 -20 21 -18 196
95 196 127 0 12 -3 22 -7 22 -5 0 -51 -28 -103 -61z"/>
<path d="M8087 10390 c-4 -17 8 -30 66 -69 40 -26 77 -50 82 -54 6 -3 16 3 23
14 11 17 4 24 -73 74 -47 30 -87 55 -89 55 -2 0 -6 -9 -9 -20z"/>
<path d="M10275 10329 c-82 -27 -194 -63 -247 -79 -74 -23 -98 -35 -103 -51
-4 -11 -5 -23 -2 -25 4 -4 497 153 505 161 2 2 2 12 0 24 -3 19 -10 18 -153
-30z"/>
<path d="M7366 10307 c3 -12 9 -25 13 -28 3 -4 82 -29 176 -57 124 -37 172
-47 177 -39 18 28 17 29 -255 110 -115 34 -118 35 -111 14z"/>
<path d="M8010 10115 c0 -8 0 -18 -1 -22 0 -6 106 -43 127 -43 7 0 14 9 17 19
4 17 -5 23 -63 40 -81 25 -80 25 -80 6z"/>
<path d="M9559 10099 c-20 -7 -26 -15 -22 -29 6 -22 8 -22 41 -14 15 4 22 14
22 30 0 26 -3 27 -41 13z"/>
<path d="M11502 9913 c-53 -3 -63 -7 -60 -21 3 -14 18 -17 89 -20 79 -2 87 -1
92 17 6 25 0 31 -32 29 -14 -1 -54 -3 -89 -5z"/>
<path d="M11927 9913 c-4 -3 -7 -15 -7 -25 0 -17 23 -18 553 -18 305 0 784 3
1065 7 488 6 512 7 512 25 0 17 -38 18 -1058 18 -582 0 -1062 -3 -1065 -7z"/>
<path d="M7946 9894 c-12 -31 -5 -34 64 -34 68 0 70 1 70 25 0 24 -2 25 -64
25 -49 0 -65 -4 -70 -16z"/>
<path d="M9592 9885 c0 -16 2 -22 5 -12 2 9 2 23 0 30 -3 6 -5 -1 -5 -18z"/>
<path d="M9890 9890 c0 -20 7 -20 270 -20 263 0 270 0 270 20 0 20 -7 20 -270
20 -263 0 -270 0 -270 -20z"/>
<path d="M10720 9890 c0 -19 7 -20 214 -20 209 0 214 0 209 20 -5 19 -14 20
-214 20 -202 0 -209 -1 -209 -20z"/>
<path d="M7523 9893 c-54 -4 -59 -8 -44 -31 5 -9 30 -12 87 -10 73 3 79 5 82
26 4 24 5 24 -125 15z"/>
<path d="M6863 9873 c-7 -2 -13 -13 -13 -24 0 -17 8 -19 68 -19 37 0 111 3
165 7 85 5 97 8 97 25 0 17 -11 18 -152 17 -84 0 -159 -3 -165 -6z"/>
<path d="M6429 9862 c-96 -2 -107 -5 -112 -22 -3 -11 -2 -21 1 -23 4 -1 60 -1
125 1 113 4 118 5 115 25 -4 24 4 23 -129 19z"/>
<path d="M4235 9799 c-308 -9 -577 -18 -597 -18 -31 -1 -38 -5 -38 -21 0 -19
7 -20 93 -20 50 0 243 4 427 10 184 5 431 13 548 16 l212 6 0 24 c0 22 -4 24
-42 23 -24 -1 -295 -10 -603 -20z"/>
<path d="M7978 9639 c-88 -30 -119 -45 -123 -60 -4 -11 -5 -22 -3 -25 3 -2 66
17 142 42 108 36 136 50 134 62 -5 26 -25 23 -150 -19z"/>
<path d="M9537 9660 c-4 -16 1 -22 26 -28 27 -7 32 -6 35 11 7 36 -52 52 -61
17z"/>
<path d="M9890 9555 c0 -14 2 -25 4 -25 2 0 116 -34 253 -75 136 -42 256 -78
266 -81 13 -4 17 0 17 18 0 24 5 22 -497 174 -42 13 -43 13 -43 -11z"/>
<path d="M7980 9296 c-234 -169 -289 -217 -278 -246 2 -7 519 357 550 388 4 4
2 16 -4 25 -12 15 -41 -4 -268 -167z"/>
<path d="M9424 9462 c-10 -16 -3 -24 55 -64 128 -87 121 -84 121 -55 0 21 -16
37 -79 81 -43 31 -81 56 -83 56 -2 0 -8 -8 -14 -18z"/>
<path d="M7073 9333 c-212 -71 -223 -76 -223 -100 0 -20 4 -24 18 -18 9 3 112
38 227 77 116 39 214 74 218 78 8 7 -1 40 -12 39 -3 0 -106 -34 -228 -76z"/>
<path d="M7435 8088 c-478 -677 -920 -1302 -980 -1387 -104 -147 -645 -913
-688 -975 -16 -23 -17 -30 -6 -37 8 -5 17 -9 21 -9 4 0 49 60 101 133 51 72
203 287 337 477 134 190 346 489 470 665 125 176 388 550 587 830 198 281 514
728 703 995 188 267 344 490 346 495 3 6 -1 18 -8 28 -11 15 -120 -135 -883
-1215z"/>
<path d="M10922 9238 c3 -19 29 -29 216 -86 117 -35 215 -62 218 -59 3 3 3 14
0 24 -4 14 -56 33 -213 81 -115 34 -212 62 -216 62 -5 0 -7 -10 -5 -22z"/>
<path d="M9266 9234 c-3 -9 -3 -21 1 -27 4 -7 111 -145 238 -307 127 -162 328
-419 446 -570 118 -151 450 -576 738 -944 288 -368 556 -711 595 -762 39 -51
164 -211 278 -356 114 -144 236 -300 271 -345 58 -74 66 -81 82 -69 17 12 -1
38 -231 332 -137 175 -274 351 -304 390 -314 408 -2094 2674 -2100 2674 -4 0
-11 -7 -14 -16z"/>
<path d="M9890 9144 c0 -27 74 -80 1127 -804 619 -426 1226 -843 1347 -926
122 -83 329 -226 461 -317 209 -144 242 -164 255 -151 12 12 12 16 0 28 -13
12 -180 127 -835 578 -44 30 -586 403 -1205 828 -619 425 -1131 777 -1137 783
-10 7 -13 2 -13 -19z"/>
<path d="M6175 9030 c-1294 -435 -2380 -801 -2382 -804 -7 -7 10 -36 21 -36
12 0 2737 918 2743 924 3 2 3 13 1 24 -3 18 -35 9 -383 -108z"/>
<path d="M9110 9070 c-13 -8 10 -83 148 -492 90 -266 262 -773 382 -1128 120
-355 300 -886 400 -1180 100 -294 229 -676 287 -847 102 -304 121 -345 139
-298 3 8 -53 189 -126 402 -72 214 -198 584 -279 823 -82 239 -323 951 -537
1582 -214 632 -391 1148 -394 1148 -3 0 -12 -5 -20 -10z"/>
<path d="M8408 8672 c-71 -207 -243 -719 -383 -1137 -140 -418 -391 -1162
-556 -1652 -165 -491 -298 -897 -294 -903 23 -38 42 7 196 465 86 259 358
1069 604 1800 246 732 481 1433 524 1558 65 194 74 229 61 237 -8 5 -17 10
-20 10 -3 0 -62 -170 -132 -378z"/>
<path d="M6755 8413 c-478 -345 -983 -708 -1121 -807 -571 -410 -1069 -769
-1073 -773 -3 -2 3 -11 11 -20 15 -15 28 -8 160 87 79 57 310 223 513 370 204
146 557 400 785 565 228 164 690 496 1025 738 336 241 617 445 625 453 12 12
10 14 -20 14 -30 0 -155 -86 -905 -627z"/>
<path d="M11666 9014 c-4 -9 -5 -18 -4 -19 2 -2 107 -35 233 -73 509 -156 963
-295 1010 -309 28 -8 226 -68 441 -134 215 -65 396 -119 402 -119 10 0 26 30
19 36 -1 2 -138 44 -302 94 -165 50 -379 115 -475 145 -409 126 -1298 395
-1307 395 -6 0 -14 -7 -17 -16z"/>
<path d="M8813 7058 c4 -1058 7 -1980 7 -2050 0 -121 1 -128 20 -128 20 0 20
7 20 1983 0 1090 -3 2012 -7 2050 -5 58 -9 67 -26 67 -20 0 -20 -5 -14 -1922z"/>
<path d="M4978 3218 c-2 -178 -5 -218 -15 -197 -6 14 -23 39 -38 57 -22 26
-34 32 -67 32 -53 0 -74 -13 -99 -63 -50 -96 -70 -269 -50 -422 22 -159 67
-230 148 -230 45 0 72 19 110 81 10 16 12 11 12 -33 1 -46 4 -53 21 -53 20 0
20 7 20 525 0 517 0 525 -20 525 -19 0 -20 -8 -22 -222z m-70 -184 c12 -8 32
-34 45 -57 20 -38 22 -59 25 -212 4 -189 -2 -227 -49 -280 -61 -69 -132 -39
-166 71 -24 81 -24 294 1 379 29 100 87 139 144 99z"/>
<path d="M5988 3218 c-2 -178 -5 -218 -15 -197 -6 14 -23 39 -38 57 -22 26
-34 32 -67 32 -53 0 -74 -13 -99 -63 -50 -96 -70 -269 -50 -422 22 -159 67
-230 148 -230 45 0 72 19 110 81 10 16 12 11 12 -33 1 -46 4 -53 21 -53 20 0
20 7 20 525 0 517 0 525 -20 525 -19 0 -20 -8 -22 -222z m-70 -184 c12 -8 32
-34 45 -57 20 -38 22 -59 25 -212 4 -189 -2 -227 -49 -280 -61 -69 -132 -39
-166 71 -24 81 -24 294 1 379 29 100 87 139 144 99z"/>
<path d="M6160 3408 c0 -18 -3 -43 -6 -55 -5 -20 -2 -23 20 -23 25 0 26 2 26
55 0 48 -2 55 -20 55 -16 0 -20 -7 -20 -32z"/>
<path d="M11858 3218 c-2 -178 -5 -218 -15 -197 -6 14 -23 39 -38 57 -22 26
-34 32 -67 32 -53 0 -74 -13 -99 -63 -50 -96 -70 -269 -50 -422 22 -159 67
-230 148 -230 45 0 72 19 110 81 10 16 12 11 12 -33 1 -46 4 -53 21 -53 20 0
20 7 20 525 0 517 0 525 -20 525 -19 0 -20 -8 -22 -222z m-70 -184 c12 -8 32
-34 45 -57 20 -38 22 -59 25 -212 4 -189 -2 -227 -49 -280 -61 -69 -132 -39
-166 71 -24 81 -24 294 1 379 29 100 87 139 144 99z"/>
<path d="M12020 3385 c0 -52 1 -55 25 -55 24 0 25 3 25 55 0 52 -1 55 -25 55
-24 0 -25 -3 -25 -55z"/>
<path d="M13460 3385 c0 -48 2 -55 20 -55 18 0 20 7 20 55 0 48 -2 55 -20 55
-18 0 -20 -7 -20 -55z"/>
<path d="M13878 3218 c-2 -178 -5 -218 -15 -197 -6 14 -23 39 -38 57 -22 26
-34 32 -67 32 -53 0 -74 -13 -99 -63 -50 -96 -70 -269 -50 -422 22 -159 67
-230 148 -230 45 0 72 19 110 81 10 16 12 11 12 -33 1 -46 4 -53 21 -53 20 0
20 7 20 525 0 517 0 525 -20 525 -19 0 -20 -8 -22 -222z m-70 -184 c12 -8 32
-34 45 -57 20 -38 22 -59 25 -212 4 -189 -2 -227 -49 -280 -61 -69 -132 -39
-166 71 -24 81 -24 294 1 379 29 100 87 139 144 99z"/>
<path d="M13220 3200 l0 -90 -30 0 c-28 0 -30 -3 -30 -35 0 -32 3 -35 29 -35
l29 0 4 -287 c3 -240 7 -294 21 -326 18 -42 54 -61 91 -47 33 12 25 60 -10 60
-15 0 -30 10 -41 27 -16 24 -18 59 -21 300 l-4 273 46 0 c46 0 46 0 46 35 0
35 0 35 -45 35 l-45 0 0 90 c0 83 -1 90 -20 90 -19 0 -20 -7 -20 -90z"/>
<path d="M3996 3078 c-18 -18 -43 -60 -57 -93 -21 -55 -23 -75 -24 -235 0
-157 2 -182 23 -241 14 -42 35 -78 57 -99 87 -84 200 -9 221 148 6 48 5 52
-13 52 -17 0 -22 -9 -27 -50 -9 -68 -54 -120 -103 -120 -80 0 -123 107 -123
304 0 155 31 270 79 296 72 38 151 -42 151 -152 0 -22 5 -28 21 -28 20 0 21 3
15 56 -8 71 -41 149 -74 174 -16 13 -40 20 -69 20 -37 0 -51 -6 -77 -32z"/>
<path d="M4377 3090 c-55 -44 -92 -180 -48 -180 14 0 20 10 24 43 11 80 92
122 150 77 33 -26 47 -75 47 -167 l0 -73 -74 0 c-59 0 -79 -4 -106 -22 -48
-33 -74 -90 -78 -173 -5 -87 10 -146 47 -188 52 -57 133 -39 188 42 l21 32 7
-56 c6 -42 11 -55 24 -55 15 0 17 19 14 218 -6 383 -7 403 -31 449 -12 23 -32
49 -44 57 -33 23 -109 21 -141 -4z m173 -433 c0 -69 -4 -92 -25 -134 -60 -119
-178 -107 -192 20 -8 64 3 111 34 148 34 39 55 48 126 48 l57 1 0 -83z"/>
<path d="M5207 3090 c-55 -44 -92 -180 -48 -180 14 0 20 10 24 43 11 80 92
122 150 77 33 -26 47 -75 47 -167 l0 -73 -74 0 c-59 0 -79 -4 -106 -22 -48
-33 -74 -90 -78 -173 -5 -87 10 -146 47 -188 52 -57 133 -39 188 42 l21 32 7
-56 c6 -42 11 -55 24 -55 15 0 17 19 14 218 -6 383 -7 403 -31 449 -12 23 -32
49 -44 57 -33 23 -109 21 -141 -4z m173 -433 c0 -69 -4 -92 -25 -134 -60 -119
-178 -107 -192 20 -8 64 3 111 34 148 34 39 55 48 126 48 l57 1 0 -83z"/>
<path d="M6154 3073 c3 -21 6 -183 6 -360 0 -316 0 -323 20 -323 20 0 20 7 20
360 l0 360 -26 0 c-25 0 -26 -2 -20 -37z"/>
<path d="M6387 3090 c-55 -44 -92 -180 -48 -180 14 0 20 10 24 43 11 80 92
122 150 77 33 -26 47 -75 47 -167 l0 -73 -74 0 c-59 0 -79 -4 -106 -22 -48
-33 -74 -90 -78 -173 -5 -87 10 -146 47 -188 52 -57 133 -39 188 42 l21 32 7
-56 c6 -42 11 -55 24 -55 15 0 17 19 14 218 -6 383 -7 403 -31 449 -12 23 -32
49 -44 57 -33 23 -109 21 -141 -4z m173 -433 c0 -69 -4 -92 -25 -134 -60 -119
-178 -107 -192 20 -8 64 3 111 34 148 34 39 55 48 126 48 l57 1 0 -83z"/>
<path d="M6972 3094 c-48 -34 -79 -135 -67 -218 11 -69 41 -106 120 -148 85
-44 112 -74 120 -132 8 -51 -20 -127 -53 -145 -63 -34 -133 4 -154 83 -9 33
-17 46 -30 46 -22 0 -23 -20 -3 -86 41 -139 193 -164 257 -41 17 32 22 59 22
117 0 117 -38 174 -142 215 -23 10 -53 30 -67 46 -92 110 27 289 125 190 19
-18 32 -44 36 -70 5 -31 11 -41 25 -41 44 0 9 135 -46 178 -34 27 -109 30
-143 6z"/>
<path d="M7372 3094 c-28 -20 -68 -97 -87 -171 -17 -66 -20 -262 -5 -344 13
-69 57 -156 93 -183 73 -54 212 12 192 91 l-6 25 -39 -36 c-103 -93 -194 -9
-207 192 l-6 82 138 0 138 0 -5 108 c-5 119 -30 197 -76 232 -30 24 -98 26
-130 4z m111 -65 c31 -24 57 -101 57 -171 l0 -48 -115 0 c-63 0 -115 4 -115 8
0 5 5 35 11 67 25 138 94 198 162 144z"/>
<path d="M7680 2751 c0 -351 1 -361 19 -361 19 0 20 10 23 273 3 260 4 274 26
314 24 46 47 63 86 63 23 0 26 4 26 35 0 39 -6 41 -55 21 -25 -11 -41 -28 -57
-62 l-23 -47 -5 59 c-4 46 -9 60 -22 62 -17 3 -18 -19 -18 -357z"/>
<path d="M8007 3090 c-55 -44 -92 -180 -48 -180 14 0 20 10 24 43 11 80 92
122 150 77 33 -26 47 -75 47 -167 l0 -73 -74 0 c-59 0 -79 -4 -106 -22 -48
-33 -74 -90 -78 -173 -5 -87 10 -146 47 -188 52 -57 133 -39 188 42 l21 32 7
-56 c6 -42 11 -55 24 -55 15 0 17 19 14 218 -6 383 -7 403 -31 449 -12 23 -32
49 -44 57 -33 23 -109 21 -141 -4z m173 -433 c0 -69 -4 -92 -25 -134 -60 -119
-178 -107 -192 20 -8 64 3 111 34 148 34 39 55 48 126 48 l57 1 0 -83z"/>
<path d="M8597 3090 c-55 -44 -92 -180 -48 -180 14 0 20 10 24 43 11 80 92
122 150 77 33 -26 47 -75 47 -167 l0 -73 -74 0 c-59 0 -79 -4 -106 -22 -48
-33 -74 -90 -78 -173 -5 -87 10 -146 47 -188 52 -57 133 -39 188 42 l21 32 7
-56 c6 -42 11 -55 24 -55 15 0 17 19 14 218 -6 383 -7 403 -31 449 -12 23 -32
49 -44 57 -33 23 -109 21 -141 -4z m173 -433 c0 -69 -4 -92 -25 -134 -60 -119
-178 -107 -192 20 -8 64 3 111 34 148 34 39 55 48 126 48 l57 1 0 -83z"/>
<path d="M8932 2813 c3 -287 4 -300 27 -350 30 -67 53 -88 101 -88 44 0 80 28
111 85 l18 35 1 -62 c0 -56 2 -63 20 -63 20 0 20 7 20 370 0 363 0 370 -20
370 -19 0 -20 -7 -20 -258 0 -292 -8 -342 -61 -386 -63 -53 -128 -21 -148 73
-6 31 -11 158 -11 311 0 257 0 260 -21 260 -20 0 -21 -2 -17 -297z"/>
<path d="M9350 2750 c0 -353 0 -360 20 -360 19 0 20 7 20 258 0 288 7 331 62
377 53 45 104 29 135 -41 15 -33 18 -80 21 -316 4 -271 4 -278 24 -278 19 0
20 5 16 293 -4 247 -7 299 -22 340 -44 118 -158 119 -216 2 l-19 -40 -1 63 c0
55 -2 62 -20 62 -20 0 -20 -7 -20 -360z"/>
<path d="M9950 2750 c0 -353 0 -360 20 -360 19 0 20 7 20 256 0 279 7 327 50
374 56 60 129 25 149 -71 6 -28 11 -162 11 -304 0 -248 1 -255 20 -255 19 0
20 7 20 229 0 125 5 252 10 282 30 156 122 200 180 84 24 -49 25 -56 28 -322
4 -259 5 -273 23 -273 18 0 19 11 19 223 0 317 -14 410 -73 475 -15 16 -32 22
-63 22 -35 0 -47 -5 -73 -35 -16 -19 -36 -53 -42 -75 l-12 -40 -17 50 c-24 72
-54 100 -104 100 -49 -1 -68 -13 -99 -69 l-24 -43 -7 56 c-5 39 -12 56 -22 56
-12 0 -14 -55 -14 -360z"/>
<path d="M10687 3090 c-55 -44 -92 -180 -48 -180 14 0 20 10 24 43 11 80 92
122 150 77 33 -26 47 -75 47 -167 l0 -73 -74 0 c-59 0 -79 -4 -106 -22 -48
-33 -74 -90 -78 -173 -5 -87 10 -146 47 -188 52 -57 133 -39 188 42 l21 32 7
-56 c6 -42 11 -55 24 -55 15 0 17 19 14 218 -6 383 -7 403 -31 449 -12 23 -32
49 -44 57 -33 23 -109 21 -141 -4z m173 -433 c0 -69 -4 -92 -25 -134 -60 -119
-178 -107 -192 20 -8 64 3 111 34 148 34 39 55 48 126 48 l57 1 0 -83z"/>
<path d="M11092 3094 c-48 -34 -79 -135 -67 -218 11 -69 41 -106 120 -148 85
-44 112 -74 120 -132 8 -51 -20 -127 -53 -145 -63 -34 -133 4 -154 83 -9 33
-17 46 -30 46 -22 0 -23 -20 -3 -86 41 -139 193 -164 257 -41 17 32 22 59 22
117 0 117 -38 174 -142 215 -23 10 -53 30 -67 46 -92 110 27 289 125 190 19
-18 32 -44 36 -70 5 -31 11 -41 25 -41 44 0 9 135 -46 178 -34 27 -109 30
-143 6z"/>
<path d="M12024 3073 c3 -21 6 -183 6 -360 0 -316 0 -323 20 -323 20 0 20 7
20 360 l0 360 -26 0 c-25 0 -26 -2 -20 -37z"/>
<path d="M12150 3102 c0 -10 139 -672 146 -694 8 -25 33 -22 39 5 9 38 145
687 145 692 0 11 -38 4 -42 -7 -3 -7 -31 -147 -64 -311 -32 -165 -59 -295 -61
-290 -1 4 -27 136 -58 293 -31 157 -59 293 -61 303 -5 16 -44 25 -44 9z"/>
<path d="M12632 3094 c-28 -20 -68 -97 -87 -171 -17 -66 -20 -262 -5 -344 13
-69 57 -156 93 -183 73 -54 212 12 192 91 l-6 25 -39 -36 c-103 -93 -194 -9
-207 192 l-6 82 138 0 138 0 -5 108 c-5 119 -30 197 -76 232 -30 24 -98 26
-130 4z m111 -65 c31 -24 57 -101 57 -171 l0 -48 -115 0 c-63 0 -115 4 -115 8
0 5 5 35 11 67 25 138 94 198 162 144z"/>
<path d="M12940 2751 c0 -351 1 -361 19 -361 19 0 20 10 23 273 3 260 4 274
26 314 24 46 47 63 86 63 23 0 26 4 26 35 0 39 -6 41 -55 21 -25 -11 -41 -28
-57 -62 l-23 -47 -5 59 c-4 46 -9 60 -22 62 -17 3 -18 -19 -18 -357z"/>
<path d="M13460 2750 c0 -353 0 -360 20 -360 20 0 20 7 20 360 0 353 0 360
-20 360 -20 0 -20 -7 -20 -360z"/>
<path d="M14104 3075 c-18 -19 -43 -61 -56 -92 -21 -53 -23 -73 -23 -238 0
-165 2 -185 23 -238 44 -107 104 -151 177 -127 81 27 125 135 132 325 6 146
-5 221 -41 301 -36 79 -68 104 -129 104 -44 0 -54 -4 -83 -35z m146 -55 c51
-54 65 -117 65 -280 -1 -127 -4 -152 -23 -202 -53 -133 -157 -131 -209 2 -14
36 -17 77 -18 205 0 148 2 164 24 213 43 95 107 119 161 62z"/>
</g>
</svg>
